<?xml version="1.0" encoding="UTF-8"?>
<svg width="89px" height="20px" viewBox="0 0 89 20" version="1.1" xmlns="http://www.w3.org/2000/svg" xmlns:xlink="http://www.w3.org/1999/xlink">
    <!-- Generator: Sketch 49.1 (51147) - http://www.bohemiancoding.com/sketch -->
    <title>notable copy</title>
    <desc>Created with Sketch.</desc>
    <defs></defs>
    <g id="Homepage" stroke="none" stroke-width="1" fill="none" fill-rule="evenodd">
        <g id="Mobile-(375px)" transform="translate(-25.000000, -85.000000)" fill="#0073E6">
            <g id="Masthead" transform="translate(0.000000, 64.000000)">
                <g id="Group-2" transform="translate(25.000000, 21.000000)">
                    <path d="M3.61509375,19.7222222 L0,19.7222222 L0,6.25 L3.47605168,6.25 L3.47605168,7.33333333 C4.50496297,6.5 5.78414999,5.97222222 7.28580432,5.97222222 C9.14896802,5.97222222 10.8452812,6.80555556 11.9576178,8.13888889 C12.847487,9.19444444 13.3480384,10.5555556 13.3480384,12.8611111 L13.3480384,19.7222222 L9.7329447,19.7222222 L9.7329447,12.5833333 C9.7329447,11.25 9.42705215,10.5555556 8.92650071,10.0555556 C8.45375768,9.58333333 7.73073893,9.30555556 6.89648653,9.30555556 C5.36702379,9.30555556 4.11564519,10.2777778 3.61509375,10.9722222 L3.61509375,19.7222222 Z M14.3908539,13 C14.3908539,9.11111111 17.4775878,5.97222222 21.5654246,5.97222222 C25.6532614,5.97222222 28.7399953,9.11111111 28.7399953,13 C28.7399953,16.8888889 25.6532614,20 21.5654246,20 C17.4775878,20 14.3908539,16.8888889 14.3908539,13 Z M18.0059477,13 C18.0059477,15.0277778 19.4519852,16.6666667 21.5654246,16.6666667 C23.678864,16.6666667 25.1249015,15.0277778 25.1249015,13 C25.1249015,10.9722222 23.678864,9.30555556 21.5654246,9.30555556 C19.4519852,9.30555556 18.0059477,10.9722222 18.0059477,13 Z M37.6386876,16.6666667 L38.1948558,19.7222222 C37.7221128,19.8888889 36.6375847,20 35.9423744,20 C33.7733181,20 32.1882385,19.2777778 31.2705609,18.0555556 C30.5753506,17.1388889 30.269458,15.9444444 30.269458,14.0277778 L30.269458,9.30555556 L30.269458,6.25 L30.269458,3.47222222 L33.8845518,3.47222222 L33.8845518,6.25 L38.7684044,6.25 C38.2149693,6.77690727 37.8383971,7.27442857 37.6386876,7.74256388 C37.4389781,8.2106992 37.2362084,8.73169642 37.0303785,9.30555556 L33.8845518,9.30555556 L33.8845518,14.4444444 C33.8845518,15.2777778 34.0235938,15.7777778 34.3294864,16.1388889 C34.6909957,16.5555556 35.2749724,16.8055556 36.1648417,16.8055556 C36.6932015,16.8055556 37.3884118,16.7222222 37.6386876,16.6666667 Z M48.970616,15 L48.970616,10.9722222 C48.2197889,9.97222222 47.0240271,9.30555556 45.6336064,9.30555556 C43.520167,9.30555556 42.1575548,11.0555556 42.1575548,13 C42.1575548,15.1111111 43.6870175,16.6666667 45.7170317,16.6666667 C47.0796439,16.6666667 48.2754057,16 48.970616,15 Z M52.5857098,6.25 L52.5857098,19.7222222 L49.1096581,19.7222222 L49.1096581,18.6388889 C47.9973216,19.5833333 46.7181346,20 45.3555223,20 C43.3533165,20 41.4623444,19.1111111 40.2665826,17.7222222 C39.2098629,16.5 38.542461,14.8333333 38.542461,13 C38.542461,9.02777778 41.4901528,5.97222222 45.1608634,5.97222222 C46.6903261,5.97222222 48.0529384,6.47222222 49.1096581,7.33333333 L49.1096581,6.25 L52.5857098,6.25 Z M58.6340397,10.9722222 L58.6340397,15 C59.32925,16 60.5250118,16.6666667 61.8876241,16.6666667 C63.9176383,16.6666667 65.447101,15.1111111 65.447101,13 C65.447101,11.0555556 64.0844887,9.30555556 61.9710493,9.30555556 C60.5806286,9.30555556 59.3848669,9.97222222 58.6340397,10.9722222 Z M58.4949976,19.7222222 L55.018946,19.7222222 L55.018946,0 L58.6340397,0 L58.6340397,7.22222222 C59.6907594,6.38888889 60.9699464,5.97222222 62.4437923,5.97222222 C66.1145029,5.97222222 69.0621947,9.02777778 69.0621947,13 C69.0621947,14.8333333 68.3947928,16.5 67.3380731,17.7222222 C66.1423113,19.1111111 64.2513392,20 62.2491334,20 C60.8865212,20 59.6073342,19.5833333 58.4949976,18.6388889 L58.4949976,19.7222222 Z M73.9981881,0 L73.9981881,19.7222222 L70.3830944,19.7222222 L70.3830944,0 L73.9981881,0 Z M85.8584764,15.5277778 L87.916299,17.5833333 C86.6093036,19.1388889 84.4680558,20 82.3824248,20 C78.3502048,20 75.3190878,17.2222222 75.3190878,13 C75.3190878,9.25 77.8774618,5.97222222 81.8818733,5.97222222 C85.6082007,5.97222222 88.25,9.11111111 88.25,12.8611111 C88.25,13.2222222 88.2221916,13.5833333 88.1665748,13.8888889 L78.8229478,13.8888889 C79.0176067,15.7777778 80.5470695,17.0833333 82.46585,17.0833333 C83.9953127,17.0833333 85.2188829,16.2222222 85.8584764,15.5277778 Z M78.9897983,11.25 L84.551481,11.25 C84.4402474,10.0555556 83.3557192,8.88888889 81.8818733,8.88888889 C80.380219,8.88888889 79.1566488,10.0277778 78.9897983,11.25 Z" id="notable-copy"></path>
                </g>
            </g>
        </g>
    </g>
</svg>